<?xml version="1.0" encoding="utf-8"?>
<!-- Uploaded to: SVG Repo, www.svgrepo.com, Generator: SVG Repo Mixer Tools -->
<svg width="800px" height="800px" viewBox="0 0 1024 1024" class="icon"  version="1.1" xmlns="http://www.w3.org/2000/svg"><path d="M215.412 747.654c0 20.425 16.557 36.983 36.983 36.983h30.761-30.761c-20.425 0-36.983 16.558-36.983 36.983v30.761-30.761c0-20.425-16.558-36.983-36.983-36.983h-30.761 30.761c20.424-0.001 36.983-16.558 36.983-36.983v-30.761 30.761z" fill="#ED8F27" /><path d="M227.99 852.377h-25.154v-30.755c0-13.462-10.948-24.409-24.41-24.409h-30.763v-25.154h30.763c13.462 0 24.41-10.948 24.41-24.41v-30.754h25.154v30.754c0 13.462 10.947 24.41 24.4 24.41v25.154c-13.453 0-24.4 10.947-24.4 24.409v30.755z m-16.606-67.741a49.398 49.398 0 0 1 4.029 4.028 47.603 47.603 0 0 1 4.02-4.028 47.764 47.764 0 0 1-4.02-4.029 49.094 49.094 0 0 1-4.029 4.029z m71.77 12.577H252.39v-25.154h30.764v25.154z" fill="#ED8F27" /><path d="M721.536 134.403c0 22.309 18.084 40.393 40.393 40.393h33.598-33.598c-22.309 0-40.393 18.085-40.393 40.394v33.598-33.598c0-22.309-18.085-40.394-40.394-40.394h-33.598 33.598c22.309 0 40.394-18.084 40.394-40.393v-33.598 33.598z" fill="#ED8F27" /><path d="M735.275 248.784h-27.474v-33.591c0-14.703-11.958-26.66-26.661-26.66h-33.6v-27.474h33.6c14.703 0 26.661-11.958 26.661-26.661v-33.59h27.474v33.59c0 14.703 11.957 26.661 26.651 26.661v27.474c-14.694 0-26.651 11.957-26.651 26.66v33.591z m-18.138-73.988a53.875 53.875 0 0 1 4.4 4.399 52.217 52.217 0 0 1 4.39-4.399 52.08 52.08 0 0 1-4.39-4.4 53.888 53.888 0 0 1-4.4 4.4z m78.389 13.737h-33.6v-27.474h33.6v27.474z" fill="#ED8F27" /><path d="M488.445 842.076h39.783v29.79h-39.783zM746.417 256.375h104.96v29.79h-104.96zM879.543 256.375h35.335v29.79h-35.335zM566.969 842.076h23.449v29.79h-23.449zM433.533 842.076h23.449v29.79h-23.449z" fill="#300604" /><path d="M911.405 372.591v339.597l-102.581-0.632S704.592 833.938 705.788 833.75c1.196-0.188 0-123.314 0-123.314l-269.809 1.751V372.591h475.426z" fill="#FCE3C3" /><path d="M699.002 722.731H423.641V361.913h498.444v360.818H813.782L699.002 855.4V722.731z m201.725-339.46H444.999v318.101H720.36v96.697l83.66-96.697h96.707V383.271z" fill="#300604" /><path d="M696.574 861.92V725.159H421.212V359.484h503.302v365.675H814.892L696.574 861.92zM426.07 720.302h275.361v128.579l111.24-128.579h106.985v-355.96H426.07v355.96z m291.862 84.287V703.801H442.571V380.843h460.585v322.958h-98.025l-87.199 100.788zM447.428 698.943h275.361v92.606l80.121-92.606h95.388V385.7h-450.87v313.243z" fill="#300604" /><path d="M658.299 372.903V245.987H110.875v344.052h87.393l88.483 100.92-1.169-100.92h147.937V372.903z" fill="#228E9D" /><path d="M289.99 706.907L187.59 600.72h-87.394V235.306h568.781v148.278h-224.78V600.72H290.464l-0.474 106.187zM121.555 579.362h75.819l74.253 77.834 0.228-77.834h150.983V362.226h224.781V256.664H121.555v322.698z" fill="#300604" /><path d="M292.392 712.896L186.559 603.148H97.768V232.877h573.639v153.136H446.625v217.136H292.882l-0.49 109.747zM102.625 598.291h85.997l98.966 102.627 0.458-102.627h153.721V381.155h224.781V237.734H102.625v360.557z m171.413 64.95l-77.703-81.451h-77.208V254.235h530.922v110.419H425.267V581.79H274.276l-0.238 81.451z m-150.055-86.308h74.43l70.802 74.217 0.218-74.217H420.41V359.797h224.78V259.093H123.983v317.84z" fill="#300604" /><path d="M320.956 450.316c3.896 2.639 8.151 5.2 12.767 7.688 4.615 2.487 7.671 4.466 9.17 5.934 1.498 1.47 2.248 3.552 2.248 6.249 0 1.917-0.885 3.835-2.652 5.754-1.769 1.917-3.911 2.877-6.428 2.877-2.039 0-4.511-0.66-7.417-1.979-2.908-1.318-6.324-3.236-10.25-5.754-3.926-2.518-8.227-5.453-12.902-8.811-8.691 4.435-19.361 6.653-32.007 6.653-10.25 0-19.436-1.634-27.557-4.9-8.123-3.267-14.94-7.971-20.454-14.115-5.515-6.144-9.665-13.441-12.452-21.893s-4.181-17.651-4.181-27.602c0-10.129 1.453-19.421 4.36-27.872s7.117-15.644 12.632-21.578c5.514-5.934 12.228-10.474 20.139-13.621 7.912-3.146 16.903-4.72 26.973-4.72 13.666 0 25.399 2.773 35.199 8.316 9.8 5.545 17.217 13.428 22.252 23.646 5.035 10.221 7.552 22.223 7.552 36.009 0 20.92-5.664 37.492-16.992 49.719z m-20.949-14.565c3.716-4.255 6.458-9.29 8.227-15.104 1.768-5.812 2.652-12.556 2.652-20.229 0-9.65-1.559-18.012-4.675-25.085-3.117-7.071-7.567-12.421-13.351-16.048-5.785-3.626-12.423-5.439-19.915-5.439-5.335 0-10.265 1.004-14.79 3.012-4.526 2.009-8.422 4.931-11.688 8.766-3.268 3.837-5.844 8.736-7.732 14.7-1.888 5.965-2.832 12.663-2.832 20.095 0 15.164 3.536 26.837 10.609 35.019 7.072 8.182 16.004 12.272 26.792 12.272 4.435 0 8.991-0.929 13.666-2.787-2.818-2.098-6.338-4.194-10.564-6.294-4.226-2.097-7.118-3.715-8.676-4.854-1.559-1.138-2.337-2.756-2.337-4.855 0-1.798 0.749-3.385 2.248-4.765 1.498-1.378 3.147-2.068 4.945-2.068 5.453-0.002 14.594 4.555 27.421 13.664z" fill="#ED8F27" /><path d="M336.06 481.246c-2.409 0-5.164-0.718-8.421-2.195-3-1.36-6.552-3.353-10.557-5.922-3.621-2.321-7.593-5.021-11.822-8.034-8.756 4.156-19.437 6.262-31.775 6.262-10.513 0-20.089-1.708-28.463-5.076-8.433-3.391-15.618-8.353-21.355-14.746-5.713-6.364-10.071-14.02-12.951-22.754-2.855-8.657-4.303-18.2-4.303-28.362 0-10.354 1.511-19.998 4.493-28.662 3.004-8.734 7.428-16.285 13.149-22.441 5.734-6.171 12.807-10.957 21.021-14.225 8.163-3.246 17.539-4.892 27.871-4.892 14.024 0 26.269 2.904 36.395 8.631 10.186 5.764 18.003 14.068 23.235 24.687 5.177 10.51 7.802 22.986 7.802 37.082 0 20.268-5.297 36.813-15.753 49.233a151.194 151.194 0 0 0 10.25 6.035c4.859 2.619 8.038 4.691 9.718 6.336 1.976 1.939 2.977 4.625 2.977 7.984 0 2.536-1.108 5.026-3.294 7.399-2.243 2.429-5.007 3.66-8.217 3.66z m-30.354-21.808l1.202 0.863c4.605 3.307 8.91 6.247 12.796 8.738 3.809 2.443 7.154 4.323 9.941 5.587 2.578 1.169 4.736 1.762 6.415 1.762 1.849 0 3.324-0.666 4.643-2.095 1.333-1.447 2.009-2.829 2.009-4.107 0-2.035-0.497-3.512-1.52-4.516-0.913-0.895-3.152-2.581-8.622-5.529-4.671-2.517-9.038-5.146-12.977-7.814l-2.342-1.586 1.922-2.075c10.846-11.707 16.346-27.88 16.346-48.068 0-13.345-2.457-25.099-7.302-34.936-4.793-9.726-11.949-17.331-21.27-22.604-9.387-5.31-20.827-8.002-34.003-8.002-9.714 0-18.487 1.53-26.075 4.548-7.539 2.999-14.018 7.379-19.257 13.018-5.257 5.656-9.333 12.626-12.115 20.715-2.806 8.154-4.229 17.267-4.229 27.082 0 9.645 1.365 18.675 4.059 26.841 2.669 8.093 6.69 15.169 11.953 21.031 5.237 5.836 11.816 10.372 19.553 13.484 7.795 3.135 16.762 4.725 26.651 4.725 12.198 0 22.595-2.149 30.903-6.388l1.319-0.674z m-32.402-9.3c-11.477 0-21.109-4.412-28.63-13.113-7.432-8.596-11.2-20.912-11.2-36.606 0-7.646 0.991-14.654 2.945-20.828 1.978-6.247 4.736-11.477 8.198-15.541 3.489-4.098 7.712-7.264 12.552-9.411 4.816-2.137 10.124-3.221 15.775-3.221 7.919 0 15.053 1.955 21.205 5.811 6.175 3.872 10.981 9.635 14.283 17.126 3.239 7.353 4.882 16.122 4.882 26.064 0 7.875-0.928 14.918-2.757 20.936-1.861 6.118-4.795 11.5-8.721 15.995l-1.444 1.654-1.791-1.271c-15.383-10.925-22.638-13.218-26.016-13.218-1.177 0-2.257 0.467-3.3 1.427-0.998 0.919-1.463 1.865-1.463 2.978 0 1.325 0.414 2.217 1.34 2.894 1.44 1.054 4.24 2.614 8.324 4.641 4.339 2.156 8.018 4.351 10.935 6.521l3.49 2.598-4.043 1.607c-4.94 1.962-9.84 2.957-14.564 2.957z m-0.359-93.864c-4.969 0-9.613 0.943-13.805 2.803-4.169 1.851-7.811 4.583-10.824 8.121-3.04 3.568-5.484 8.231-7.266 13.858-1.804 5.698-2.719 12.213-2.719 19.361 0 14.494 3.371 25.741 10.018 33.43 6.649 7.693 14.812 11.433 24.955 11.433 2.662 0 5.403-0.37 8.191-1.103a82.858 82.858 0 0 0-6.17-3.375c-4.391-2.179-7.345-3.837-9.03-5.069-2.179-1.59-3.332-3.947-3.332-6.815 0-2.496 1.02-4.7 3.031-6.552 1.955-1.798 4.172-2.71 6.59-2.71 5.743 0 14.578 4.194 26.975 12.812 2.786-3.618 4.918-7.822 6.35-12.529 1.69-5.558 2.547-12.126 2.547-19.521 0-9.265-1.503-17.375-4.469-24.105-2.903-6.586-7.082-11.623-12.419-14.97-5.364-3.364-11.631-5.069-18.623-5.069z" fill="#ED8F27" /><path d="M624.43 637.357l-33.173-14.077 87.555-206.489 86.981 206.536-33.222 13.983-53.876-127.944z" fill="#B12800" /><path d="M632.618 552.594h88.915v36.036h-88.915z" fill="#B12800" /></svg>