<?xml version="1.0" encoding="utf-8"?>
<!-- Uploaded to: SVG Repo, www.svgrepo.com, Generator: SVG Repo Mixer Tools -->
<svg width="800px" height="800px" viewBox="0 0 1024 1024" class="icon"  version="1.1" xmlns="http://www.w3.org/2000/svg"><path d="M660.48 403.2L640 387.84c16.64-24.32 26.88-52.48 26.88-81.92 0-55.04-32-104.96-81.92-128l10.24-23.04C652.8 181.76 691.2 240.64 691.2 305.92c0 35.84-10.24 69.12-30.72 97.28zM389.12 403.2c-20.48-28.16-30.72-61.44-30.72-97.28 0-65.28 38.4-124.16 97.28-151.04l10.24 23.04c-49.92 23.04-81.92 72.96-81.92 128 0 29.44 8.96 57.6 26.88 81.92l-21.76 15.36z" fill="#231C1C" /><path d="M711.68 441.6L691.2 426.24c25.6-34.56 39.68-76.8 39.68-120.32 0-84.48-53.76-161.28-133.12-192l8.96-24.32c89.6 33.28 148.48 120.32 148.48 215.04 0 49.92-15.36 97.28-43.52 136.96zM337.92 441.6c-29.44-39.68-43.52-87.04-43.52-135.68 0-94.72 60.16-181.76 148.48-215.04l8.96 24.32c-79.36 29.44-133.12 107.52-133.12 192 0 43.52 14.08 85.76 39.68 120.32l-20.48 14.08z" fill="#231C1C" /><path d="M588.8 550.4l-38.4-218.88c0-14.08 1.28-25.6-12.8-25.6h-25.6c-14.08 0-12.8 11.52-12.8 25.6L460.8 550.4l-76.8 320c0 14.08 11.52 25.6 25.6 25.6h51.2l20.48-76.8h87.04l20.48 76.8h51.2c14.08 0 25.6-11.52 25.6-25.6l-76.8-320z m-97.28 206.08L512 640h25.6l20.48 116.48h-66.56z" fill="#FDE8C2" /><path d="M640 908.8h-51.2c-6.4 0-11.52-3.84-12.8-8.96L558.08 832h-67.84L473.6 899.84c-1.28 5.12-6.4 8.96-12.8 8.96h-51.2c-21.76 0-38.4-16.64-38.4-38.4v-2.56l76.8-320 38.4-216.32v-2.56c0-10.24 0-20.48 7.68-28.16 3.84-5.12 10.24-6.4 17.92-6.4h25.6c7.68 0 14.08 2.56 17.92 6.4 7.68 6.4 7.68 17.92 7.68 28.16v2.56l38.4 217.6 76.8 320v2.56c0 20.48-16.64 37.12-38.4 37.12z m-40.96-25.6H640c6.4 0 11.52-5.12 12.8-11.52l-76.8-318.72v-1.28L537.6 332.8v-6.4-8.96h-25.6V332.8l-38.4 218.88L396.8 870.4c0 6.4 6.4 11.52 12.8 11.52h40.96l17.92-67.84c1.28-5.12 6.4-8.96 12.8-8.96h87.04c6.4 0 11.52 3.84 12.8 8.96l17.92 69.12z m-40.96-113.92h-66.56c-3.84 0-7.68-1.28-10.24-5.12-2.56-2.56-3.84-6.4-2.56-10.24l20.48-116.48c1.28-6.4 6.4-10.24 12.8-10.24h25.6c6.4 0 11.52 3.84 12.8 10.24l20.48 116.48c1.28 3.84 0 7.68-2.56 10.24-2.56 3.84-6.4 5.12-10.24 5.12z m-51.2-25.6h35.84L527.36 652.8h-3.84l-16.64 90.88z" fill="#231C1C" /><path d="M524.8 305.92m-64 0a64 64 0 1 0 128 0 64 64 0 1 0-128 0Z" fill="#E64C45" /><path d="M524.8 382.72c-42.24 0-76.8-34.56-76.8-76.8s34.56-76.8 76.8-76.8 76.8 34.56 76.8 76.8-34.56 76.8-76.8 76.8z m0-128c-28.16 0-51.2 23.04-51.2 51.2s23.04 51.2 51.2 51.2 51.2-23.04 51.2-51.2-23.04-51.2-51.2-51.2z" fill="#231C1C" /></svg>