<?xml version="1.0" encoding="iso-8859-1"?>
<!-- Uploaded to: SVG Repo, www.svgrepo.com, Generator: SVG Repo Mixer Tools -->
<svg height="800px" width="800px" version="1.1" id="Layer_1" xmlns="http://www.w3.org/2000/svg" xmlns:xlink="http://www.w3.org/1999/xlink" 
	 viewBox="0 0 512 512" xml:space="preserve">
<path style="fill:#FFFFFF;" d="M256,504C119.248,504,8,392.752,8,256S119.248,8,256,8s248,111.248,248,248S392.752,504,256,504z"/>
<path style="fill:#E2E2E2;" d="M256,16c132.336,0,240,107.664,240,240S388.336,496,256,496S16,388.336,16,256S123.664,16,256,16
	 M256,0C114.616,0,0,114.616,0,256s114.616,256,256,256s256-114.616,256-256S397.384,0,256,0L256,0z"/>
<g>
	<circle style="fill:#E21B1B;" cx="108.008" cy="189.488" r="12.912"/>
	<path style="fill:#E21B1B;" d="M122.424,207.568H93.592c-10.168,0-18.44,8.272-18.44,18.44v36.16c0,3.704,3,6.704,6.704,6.704
		s6.704-3,6.704-6.704v-32.432h4.024v30.576c0,0.016-0.008,0.032-0.008,0.04v68.368c0,3.704,3,6.704,6.704,6.704
		s6.704-3,6.704-6.704v-55h4.024v55c0,3.704,3,6.704,6.704,6.704s6.704-3,6.704-6.704v-55v-13.368v-30.616h4.024v32.432
		c0,3.704,3,6.704,6.704,6.704s6.704-3,6.704-6.704v-36.16C140.864,215.84,132.592,207.568,122.424,207.568z"/>
</g>
<g>
	<circle style="fill:#999999;" cx="181.96" cy="189.488" r="12.912"/>
	<path style="fill:#999999;" d="M196.376,207.568h-28.832c-10.168,0-18.44,8.272-18.44,18.44v36.16c0,3.704,3,6.704,6.704,6.704
		s6.704-3,6.704-6.704v-32.432h4.024v30.576c0,0.016-0.008,0.032-0.008,0.04v68.368c0,3.704,3,6.704,6.704,6.704
		s6.704-3,6.704-6.704v-55h4.024v55c0,3.704,3,6.704,6.704,6.704s6.704-3,6.704-6.704v-55v-13.368v-30.616h4.024v32.432
		c0,3.704,3,6.704,6.704,6.704s6.704-3,6.704-6.704v-36.16C214.816,215.84,206.544,207.568,196.376,207.568z"/>
	<circle style="fill:#999999;" cx="255.96" cy="189.488" r="12.912"/>
	<path style="fill:#999999;" d="M270.376,207.568h-28.832c-10.168,0-18.44,8.272-18.44,18.44v36.16c0,3.704,3,6.704,6.704,6.704
		s6.704-3,6.704-6.704v-32.432h4.024v30.576c0,0.016-0.008,0.032-0.008,0.04v68.368c0,3.704,3,6.704,6.704,6.704
		s6.704-3,6.704-6.704v-55h4.024v55c0,3.704,3,6.704,6.704,6.704s6.704-3,6.704-6.704v-55v-13.368v-30.616h4.024v32.432
		c0,3.704,3,6.704,6.704,6.704s6.704-3,6.704-6.704v-36.16C288.816,215.84,280.544,207.568,270.376,207.568z"/>
	<circle style="fill:#999999;" cx="329.92" cy="189.488" r="12.912"/>
	<path style="fill:#999999;" d="M344.376,207.568h-28.832c-10.168,0-18.44,8.272-18.44,18.44v36.16c0,3.704,3,6.704,6.704,6.704
		s6.704-3,6.704-6.704v-32.432h4.024v30.576c0,0.016-0.008,0.032-0.008,0.04v68.368c0,3.704,3,6.704,6.704,6.704
		s6.704-3,6.704-6.704v-55h4.024v55c0,3.704,3,6.704,6.704,6.704s6.704-3,6.704-6.704v-55v-13.368v-30.616h4.024v32.432
		c0,3.704,3,6.704,6.704,6.704s6.704-3,6.704-6.704v-36.16C362.816,215.84,354.544,207.568,344.376,207.568z"/>
	<circle style="fill:#999999;" cx="404.16" cy="189.488" r="12.912"/>
	<path style="fill:#999999;" d="M418.576,207.568h-28.832c-10.168,0-18.44,8.272-18.44,18.44v36.16c0,3.704,3,6.704,6.704,6.704
		s6.704-3,6.704-6.704v-32.432h4.024v30.576c0,0.016-0.008,0.032-0.008,0.04v68.368c0,3.704,3,6.704,6.704,6.704
		s6.704-3,6.704-6.704v-55h4.024v55c0,3.704,3,6.704,6.704,6.704s6.704-3,6.704-6.704v-55v-13.368v-30.616h4.024v32.432
		c0,3.704,3,6.704,6.704,6.704s6.704-3,6.704-6.704v-36.16C437.016,215.84,428.744,207.568,418.576,207.568z"/>
</g>
</svg>