<svg xmlns="http://www.w3.org/2000/svg"  viewBox="0 0 64 64" width="64px" height="64px"><linearGradient id="0QVtQmKaR0uEiMy4kXJm_a" x1="32.002" x2="32.002" y1="53.326" y2="33.119" gradientTransform="matrix(1 0 0 -1 0 66)" gradientUnits="userSpaceOnUse"><stop offset="0" stop-color="#1a6dff"/><stop offset="1" stop-color="#c822ff"/></linearGradient><path fill="url(#0QVtQmKaR0uEiMy4kXJm_a)" d="M18.037,26.712c0,0.796,0.085,1.44,0.235,1.913c0.171,0.473,0.383,0.989,0.681,1.548 c0.107,0.172,0.149,0.344,0.149,0.495c0,0.215-0.128,0.429-0.404,0.645l-1.341,0.903c-0.192,0.129-0.383,0.193-0.553,0.193 c-0.213,0-0.425-0.108-0.639-0.301c-0.299-0.323-0.553-0.667-0.767-1.011c-0.213-0.365-0.425-0.773-0.66-1.268 c-1.66,1.977-3.747,2.967-6.259,2.967c-1.788,0-3.215-0.516-4.257-1.548C3.18,30.216,2.648,28.84,2.648,27.12 c0-1.827,0.639-3.311,1.937-4.428c1.299-1.117,3.023-1.677,5.215-1.677c0.724,0,1.469,0.064,2.256,0.172 c0.787,0.108,1.596,0.28,2.448,0.473v-1.569c0-1.633-0.34-2.773-1-3.44c-0.681-0.667-1.831-0.989-3.469-0.989 c-0.745,0-1.511,0.085-2.299,0.28c-0.788,0.193-1.553,0.429-2.299,0.731c-0.34,0.151-0.596,0.236-0.745,0.28 c-0.149,0.043-0.256,0.064-0.34,0.064c-0.299,0-0.447-0.215-0.447-0.667v-1.053c0-0.344,0.043-0.601,0.149-0.752 c0.107-0.151,0.299-0.301,0.596-0.452c0.745-0.387,1.639-0.709,2.683-0.968c1.043-0.28,2.149-0.408,3.32-0.408 c2.533,0,4.385,0.58,5.577,1.741c1.171,1.161,1.767,2.924,1.767,5.288v6.965L18.037,26.712 C18.037,26.711,18.037,26.712,18.037,26.712z M9.394,29.979c0.703,0,1.427-0.129,2.192-0.387c0.767-0.257,1.448-0.731,2.023-1.376 c0.34-0.408,0.596-0.86,0.724-1.376c0.128-0.516,0.213-1.14,0.213-1.871v-0.903c-0.617-0.151-1.277-0.28-1.959-0.365 c-0.681-0.085-1.341-0.129-2.001-0.129c-1.427,0-2.469,0.28-3.172,0.86s-1.043,1.397-1.043,2.472c0,1.011,0.256,1.763,0.788,2.279 C7.67,29.721,8.416,29.979,9.394,29.979z M26.487,32.301c-0.383,0-0.639-0.064-0.809-0.215c-0.171-0.129-0.319-0.429-0.447-0.839 L20.228,14.63c-0.128-0.429-0.192-0.709-0.192-0.86c0-0.344,0.171-0.537,0.511-0.537h2.087c0.404,0,0.681,0.064,0.831,0.215 c0.171,0.129,0.297,0.429,0.425,0.839l3.576,14.232l3.32-14.232c0.107-0.429,0.235-0.709,0.404-0.839 c0.171-0.129,0.468-0.215,0.852-0.215h1.703c0.404,0,0.681,0.064,0.852,0.215c0.171,0.129,0.319,0.429,0.404,0.839l3.363,14.404 l3.683-14.404c0.128-0.429,0.277-0.709,0.425-0.839c0.171-0.129,0.447-0.215,0.831-0.215h1.98c0.34,0,0.532,0.172,0.532,0.537 c0,0.108-0.021,0.215-0.043,0.344c-0.021,0.129-0.064,0.301-0.149,0.537l-5.129,16.617c-0.128,0.429-0.277,0.709-0.447,0.839 c-0.169,0.129-0.447,0.215-0.809,0.215h-1.831c-0.404,0-0.681-0.064-0.852-0.215c-0.171-0.151-0.319-0.429-0.404-0.86 l-3.299-13.866l-3.277,13.845c-0.107,0.429-0.235,0.709-0.404,0.86c-0.171,0.151-0.468,0.215-0.852,0.215H26.487z M53.839,32.881 c-1.107,0-2.213-0.129-3.277-0.387c-1.064-0.257-1.895-0.537-2.448-0.86c-0.34-0.193-0.575-0.408-0.66-0.601 c-0.085-0.193-0.128-0.408-0.128-0.601v-1.096c0-0.452,0.171-0.667,0.489-0.667c0.128,0,0.256,0.021,0.383,0.064 c0.128,0.043,0.319,0.129,0.532,0.215c0.724,0.323,1.511,0.58,2.341,0.752c0.852,0.172,1.681,0.257,2.533,0.257 c1.341,0,2.384-0.236,3.108-0.709c0.724-0.473,1.107-1.161,1.107-2.043c0-0.601-0.192-1.096-0.575-1.505 c-0.383-0.408-1.107-0.773-2.149-1.117l-3.087-0.968c-1.553-0.495-2.703-1.225-3.405-2.193c-0.703-0.945-1.064-1.999-1.064-3.117 c0-0.903,0.192-1.699,0.575-2.387c0.383-0.688,0.895-1.289,1.532-1.763c0.639-0.495,1.363-0.86,2.213-1.117 c0.852-0.256,1.745-0.364,2.683-0.364c0.468,0,0.957,0.021,1.427,0.085c0.489,0.064,0.936,0.151,1.384,0.236 c0.425,0.108,0.831,0.215,1.213,0.344s0.681,0.257,0.895,0.387c0.299,0.172,0.511,0.344,0.639,0.537 c0.128,0.172,0.192,0.408,0.192,0.709v1.011c0,0.452-0.171,0.688-0.489,0.688c-0.171,0-0.447-0.085-0.809-0.257 c-1.213-0.559-2.576-0.839-4.087-0.839c-1.213,0-2.171,0.193-2.831,0.601s-1,1.032-1,1.913c0,0.601,0.213,1.117,0.639,1.527 c0.425,0.408,1.213,0.817,2.341,1.183l3.023,0.968c1.532,0.495,2.64,1.183,3.299,2.064c0.659,0.881,0.979,1.892,0.979,3.009 c0,0.924-0.192,1.763-0.553,2.493c-0.383,0.731-0.895,1.376-1.553,1.892c-0.66,0.537-1.448,0.924-2.363,1.204 C55.924,32.731,54.924,32.881,53.839,32.881z"/><linearGradient id="0QVtQmKaR0uEiMy4kXJm_b" x1="32" x2="32" y1="29.23" y2="14.674" gradientTransform="matrix(1 0 0 -1 0 66)" gradientUnits="userSpaceOnUse"><stop offset="0" stop-color="#6dc7ff"/><stop offset="1" stop-color="#e6abff"/></linearGradient><path fill="url(#0QVtQmKaR0uEiMy4kXJm_b)" d="M57.862,43.329 c-7.003,5.224-17.177,7.997-25.926,7.997c-12.26,0-23.308-4.579-31.652-12.189c-0.66-0.601-0.064-1.419,0.724-0.945 c9.025,5.288,20.157,8.492,31.673,8.492c7.769,0,16.305-1.633,24.158-4.988C58.011,41.159,59.011,42.469,57.862,43.329z M60.778,39.976c-0.895-1.161-5.917-0.559-8.195-0.28c-0.681,0.085-0.788-0.516-0.171-0.968c4.001-2.837,10.579-2.021,11.345-1.075 c0.767,0.968-0.213,7.611-3.959,10.792c-0.575,0.495-1.128,0.236-0.873-0.408C59.778,45.909,61.672,41.115,60.778,39.976z"/></svg>