<?xml version="1.0" ?><!-- Uploaded to: SVG Repo, www.svgrepo.com, Generator: SVG Repo Mixer Tools -->
<svg width="800px" height="800px" viewBox="0 0 64 64" data-name="Layer 1" id="Layer_1" xmlns="http://www.w3.org/2000/svg"><defs><style>
      .cls-1 {
        fill: #f5dd90;
      }

      .cls-2 {
        fill: #a3cef1;
      }

      .cls-3 {
        fill: #6096ba;
      }

      .cls-4 {
        fill: #274c77;
      }
    </style></defs><polyline class="cls-4" points="11 49 11 61 5 61 5 49"/><polyline class="cls-4" points="59 49 59 61 53 61 53 49"/><rect class="cls-1" height="46" width="58" x="3" y="3"/><path class="cls-4" d="M32,45h-3l-2-2H10V13h4v24s12.15-3,18,8Z"/><path class="cls-4" d="M50,37V13h4v30h-17s-2,2-2,2h-3c5.85-11,18-8,18-8Z"/><path class="cls-3" d="M32,45c-5.85-11-18-8-18-8V10l6-2v25c6.63,0,12,5.37,12,12Z"/><path class="cls-3" d="M44,8l6,2v27s-12.15-3-18,8c0-6.63,5.37-12,12-12V8Z"/><path class="cls-2" d="M32,19c0-6.63-5.37-12-12-12v26c6.63,0,12,5.37,12,12,0-6.63,5.37-12,12-12V7c-6.63,0-12,5.37-12,12Z"/></svg>