<?xml version="1.0" encoding="iso-8859-1"?>
<!-- Uploaded to: SVG Repo, www.svgrepo.com, Generator: SVG Repo Mixer Tools -->
<svg version="1.1" id="Layer_1" xmlns="http://www.w3.org/2000/svg" xmlns:xlink="http://www.w3.org/1999/xlink" 
	 viewBox="0 0 512 512" xml:space="preserve">
<path style="fill:#EFBE44;" d="M495.278,511.972H16.722c-9.216,0-16.694-7.478-16.694-16.694V16.722
	c0-9.222,7.478-16.694,16.694-16.694h478.557c9.216,0,16.694,7.472,16.694,16.694v478.557
	C511.972,504.496,504.495,511.972,495.278,511.972z"/>
<path style="fill:#E4A738;" d="M495.278,0.028H256v511.944h239.278c9.216,0,16.694-7.478,16.694-16.694V16.722
	C511.972,7.5,504.495,0.028,495.278,0.028z"/>
<path style="fill:#F6DF5A;" d="M33.416,478.473h445.169V33.416H33.416C33.416,33.416,33.416,478.473,33.416,478.473z"/>
<rect x="256.006" y="33.41" style="fill:#F0CA45;" width="222.585" height="445.058"/>
<path style="fill:#EFBE44;" d="M507.075,138.475c-6.566-6.566-17.028-6.566-23.594,0l-27.155,27.155l-43.181-43.181l93.931-93.931
	c6.566-6.455,6.566-17.139,0-23.594c-6.566-6.566-17.028-6.566-23.594,0L322.775,165.631l-43.181-43.181l93.931-93.931
	c6.566-6.455,6.566-17.139,0-23.594c-6.566-6.566-17.028-6.566-23.594,0L256,98.855L162.069,4.925
	c-6.566-6.566-17.028-6.566-23.594,0c-6.566,6.455-6.566,17.139,0,23.594l27.155,27.155l-43.181,43.181L28.519,4.925
	c-6.566-6.566-17.028-6.566-23.594,0c-6.566,6.455-6.566,17.139,0,23.594l160.706,160.706l-43.181,43.181l-93.931-93.931
	c-6.566-6.566-17.028-6.566-23.594,0c-6.566,6.566-6.566,17.028,0,23.594L98.855,256L4.925,349.931
	c-6.566,6.566-6.566,17.028,0,23.594c6.566,6.566,17.028,6.566,23.594,0l27.155-27.155l43.181,43.181L4.925,483.481
	c-6.566,6.566-6.566,17.028,0,23.594s17.028,6.566,23.594,0l160.706-160.706l43.181,43.181l-93.931,93.931
	c-6.566,6.566-6.566,17.028,0,23.594c6.566,6.566,17.028,6.566,23.594,0L256,413.145l93.931,93.931
	c6.566,6.566,17.028,6.566,23.594,0c6.566-6.566,6.566-17.028,0-23.594l-27.155-27.155l43.181-43.181l93.931,93.931
	c6.566,6.566,17.028,6.566,23.594,0c6.566-6.566,6.566-17.028,0-23.594L346.369,322.775l43.181-43.181l93.931,93.931
	c6.566,6.566,17.028,6.566,23.594,0s6.566-17.028,0-23.594L413.145,256l93.931-93.931
	C513.642,155.503,513.642,145.042,507.075,138.475z M146.043,122.449l43.181-43.181l109.957,109.957L256,232.406L146.043,122.449z
	 M122.449,365.957l-43.181-43.181l109.957-109.957L232.406,256L122.449,365.957z M365.957,389.551l-43.181,43.181L212.819,322.775
	L256,279.594L365.957,389.551z M322.775,299.181L279.594,256l109.957-109.957l43.181,43.181L322.775,299.181z"/>
<path style="fill:#E4A738;" d="M507.075,138.475c-6.566-6.566-17.028-6.566-23.594,0l-27.155,27.155l-43.181-43.181l93.931-93.931
	c6.566-6.455,6.566-17.139,0-23.594c-6.566-6.566-17.028-6.566-23.594,0L322.775,165.631l-43.181-43.181l93.931-93.931
	c6.566-6.455,6.566-17.139,0-23.594c-6.566-6.566-17.028-6.566-23.594,0L256,98.855v47.188l43.181,43.181L256,232.406v47.188
	l109.957,109.957l-43.181,43.181L256,365.957v47.188l93.931,93.931c6.566,6.566,17.028,6.566,23.594,0
	c6.566-6.566,6.566-17.028,0-23.594l-27.155-27.155l43.181-43.181l93.931,93.931c6.566,6.566,17.028,6.566,23.594,0
	c6.566-6.566,6.566-17.028,0-23.594L346.369,322.775l43.181-43.181l93.931,93.931c6.566,6.566,17.028,6.566,23.594,0
	c6.566-6.566,6.566-17.028,0-23.594L413.145,256l93.931-93.931C513.642,155.503,513.642,145.042,507.075,138.475z M322.775,299.181
	L279.594,256l109.957-109.957l43.181,43.181L322.775,299.181z"/>
</svg>