<?xml version="1.0" ?>
<!-- Uploaded to: SVG Repo, www.svgrepo.com, Generator: SVG Repo Mixer Tools -->
<svg width="800px" height="800px" viewBox="0 0 64 64" id="Layer_1" version="1.1" xml:space="preserve" xmlns="http://www.w3.org/2000/svg" xmlns:xlink="http://www.w3.org/1999/xlink">
<style type="text/css">
	.st0{fill:#1379C2;}
	.st1{fill:#358DCC;}
	.st2{fill-rule:evenodd;clip-rule:evenodd;fill:#3FB754;}
	.st3{fill-rule:evenodd;clip-rule:evenodd;fill:#CCCCCC;}
	.st4{fill:#5D5E61;}
	.st5{fill:#924F34;}
	.st6{fill:#E6E6E6;}
	.st7{fill:#0F8C7E;}
	.st8{fill-rule:evenodd;clip-rule:evenodd;fill:#E6E6E6;}
	.st9{fill-rule:evenodd;clip-rule:evenodd;fill:#E6E6E6;stroke:#000000;stroke-width:0.4799;stroke-miterlimit:2.6131;}
	.st10{fill:#823B1F;}
	.st11{fill:#FFC810;}
	.st12{fill-rule:evenodd;clip-rule:evenodd;fill:#924F34;}
	.st13{fill:#E04538;}
	.st14{fill-rule:evenodd;clip-rule:evenodd;}
	.st15{fill-rule:evenodd;clip-rule:evenodd;fill:#FFC810;}
	.st16{fill-rule:evenodd;clip-rule:evenodd;fill:#E4E7E9;}
	.st17{fill:#3FB754;}
	.st18{fill-rule:evenodd;clip-rule:evenodd;fill:#5D5E61;}
	.st19{fill:#C92B1C;}
	.st20{fill:#666666;}
	.st21{fill:#FFD95E;}
	.st22{fill:#4D4D4D;}
	.st23{fill-rule:evenodd;clip-rule:evenodd;fill:#0F8C7E;}
	.st24{fill:#999999;}
	.st25{fill:#CCCCCC;}
	.st26{fill-rule:evenodd;clip-rule:evenodd;fill:#358DCC;}
	.st27{fill-rule:evenodd;clip-rule:evenodd;fill:#823B1F;}
</style>
<g>
<path class="st2" d="M53.1,23.2L53.1,23.2L53.1,23.2z M10.9,10.7L10.9,10.7L10.9,10.7z M29.8,60.8c0,1.2,1,2.2,2.2,2.2   c1.2,0,2.2-1,2.2-2.2V40.2h18.8c0.5,0,1-0.2,1.4-0.5l7.6-5.7c1-0.7,1.2-2.2,0.5-3.1c-0.1-0.2-0.3-0.3-0.5-0.5l-7.6-6.6   c-0.4-0.4-1-0.6-1.5-0.6H34.3c0-6.7,0-13.3,0-20C34.3,2,33.2,1,32,1c-1.2,0-2.2,1-2.2,2.2v7.5l-18.8,0c-0.5,0-1.1,0.2-1.5,0.6   l-7.6,6.6c-0.2,0.1-0.3,0.3-0.5,0.5c-0.7,1-0.5,2.4,0.5,3.1l7.6,5.7c0.4,0.3,0.9,0.5,1.4,0.5h18.8V60.8L29.8,60.8z M34.3,35.7v-8   h18l5,4.3l-4.9,3.6H34.3L34.3,35.7z M29.8,23.2H11.7l-4.9-3.6l5-4.3h18V23.2L29.8,23.2z"/>
<path d="M30.7,60.8c0,0.7,0.6,1.3,1.3,1.3s1.3-0.6,1.3-1.3V40.2v-1h1c2.3,0,18.4,0.2,19.3-0.1v0c1.1-0.4,6.6-4.9,8-5.9v0   c0.8-0.6,0.6-1.6-0.1-2.1l-7.6-6.6c-0.1-0.1-0.3-0.2-0.4-0.2c-0.1-0.1-0.3-0.1-0.5-0.1v0H34.3h-1v-1v-20c0-0.7-0.6-1.3-1.3-1.3   c-0.7,0-1.3,0.6-1.3,1.3v7.5v1h-1l-18.8,0v0c-0.3,0-0.6,0.1-0.8,0.3h0l-7.6,6.6c-0.7,0.6-0.8,1.5-0.1,2.1l7.6,5.7l0,0   c0.2,0.2,0.5,0.3,0.8,0.3h18.8h1v1V60.8L30.7,60.8z M28.8,60.8V28.7H10.9c-0.7,0-1.4-0.3-2-0.7l0,0l-7.6-5.7   c-0.7-0.5-1.1-1.3-1.3-2.1v0c-0.1-0.8,0.1-1.7,0.6-2.4c0.1-0.1,0.2-0.3,0.3-0.4c0.1-0.1,0.2-0.2,0.3-0.3l7.5-6.6   c0.6-0.5,1.3-0.8,2.1-0.8l17.9,0V3.2C28.8,1.4,30.2,0,32,0c1.8,0,3.2,1.4,3.2,3.2v19h17.9l0,0c0.4,0,0.8,0.1,1.1,0.2   c0.3,0.1,0.7,0.3,1,0.6l7.5,6.6c1.7,1.3,1.7,3.9,0,5.1l0,0l-7.6,5.7c-0.3,0.2-0.6,0.4-0.9,0.5l0,0c-0.3,0.1-0.7,0.2-1.1,0.2H35.2   v19.6c0,1.8-1.4,3.2-3.2,3.2C30.2,64,28.8,62.6,28.8,60.8L28.8,60.8z M55.1,40.5L55.1,40.5L55.1,40.5L55.1,40.5z M33.3,35.7v-8v-1   h1h18l0.6,0.2l5.9,5.1l-5.8,4.4l-0.6,0.2H34.3h-1V35.7L33.3,35.7z M35.2,28.7v6H52l3.7-2.7l-3.8-3.3H35.2L35.2,28.7z M29.8,24.2   H11.7L11.1,24l-5.8-4.4l5.9-5.1l0.6-0.2h18h1v1v8v1H29.8L29.8,24.2z M12,22.2h16.8v-6H12.1l-3.8,3.3L12,22.2L12,22.2z"/>
<polygon class="st3" points="11.7,23.2 29.8,23.2 29.8,15.2 11.8,15.2 6.8,19.6 11.7,23.2  "/>
<path d="M12,22.2h16.8v-6H12.1l-3.8,3.3L12,22.2L12,22.2z M29.8,24.2H11.7L11.1,24l-4.9-3.6l-1-0.7l0.9-0.8l5-4.3l0.6-0.2h18h1v1v8   v1H29.8L29.8,24.2z"/>
<polygon class="st3" points="34.3,27.7 34.3,35.7 52.3,35.7 57.2,32.1 52.2,27.7 34.3,27.7  "/>
<path d="M35.2,28.7v6H52l3.7-2.7l-3.8-3.3H35.2L35.2,28.7z M33.3,26.7h19l0.6,0.2l5.9,5.1l-5.8,4.4l-0.6,0.2h-19   C33.3,33.4,33.3,30,33.3,26.7L33.3,26.7z"/>
</g>
</svg>